<svg viewBox="0 0 24 24" width="100%" height="100%" xmlns="http://www.w3.org/2000/svg" aria-hidden="true">
  <path fill="currentColor" d="M12 .5C5.37.5 0 5.78 0 12.29c0 5.21 3.438 9.63 8.205 11.19.6.11.82-.26.82-.57 0-.28-.01-1.02-.015-2.01-3.338.71-4.042-1.59-4.042-1.59-.546-1.37-1.333-1.74-1.333-1.74-1.09-.73.083-.72.083-.72 1.205.08 1.838 1.22 1.838 1.22 1.07 1.8 2.807 1.28 3.492.98.108-.76.42-1.28.762-1.57-2.665-.3-5.466-1.31-5.466-5.83 0-1.29.465-2.34 1.235-3.17-.135-.3-.54-1.52.105-3.17 0 0 1.005-.32 3.3 1.21.96-.26 1.98-.39 3-.39 1.02 0 2.04.13 3 .39 2.28-1.53 3.285-1.21 3.285-1.21.645 1.65.24 2.87.12 3.17.765.83 1.23 1.88 1.23 3.17 0 4.53-2.805 5.52-5.475 5.81.42.36.81 1.09.81 2.2 0 1.59-.015 2.87-.015 3.26 0 .31.21.69.825.57C20.565 21.91 24 17.5 24 12.29 24 5.78 18.63.5 12 .5Z"/>
</svg>
